<svg xmlns="http://www.w3.org/2000/svg"  viewBox="0 0 50 50" width="50px" height="50px"><path d="M 24.998047 1 C 19.565047 1 14.995719 2.5616562 13.886719 2.9726562 L 14.142578 3.0097656 C 15.534578 3.1637656 22.2 3.9841406 25 5.7441406 C 27.799 3.9841406 34.467672 3.1638594 35.888672 3.0058594 L 36.113281 2.9746094 C 35.006281 2.5636094 30.433047 1 24.998047 1 z M 13 4.8671875 L 13 10.9375 L 12.015625 19.236328 C 11.869625 20.683328 12.786219 22.024828 14.199219 22.423828 L 21 24.339844 L 21 28 L 28.998047 28 L 28.998047 24.341797 L 35.800781 22.421875 C 37.213781 22.022875 38.131422 20.68375 37.982422 19.21875 L 36.998047 10.921875 L 36.998047 4.8671875 L 36.140625 4.9902344 C 32.763625 5.3662344 26.981078 6.4310312 25.705078 7.7070312 C 25.518078 7.8950312 25.266 8 25 8 C 24.734 8 24.479016 7.8950312 24.291016 7.7070312 C 23.016016 6.4310313 17.234625 5.3651406 13.890625 4.9941406 L 13 4.8671875 z M 35.115234 12.03125 L 35.6875 16.841797 C 35.0955 17.709797 34.249484 18.436828 33.021484 18.798828 C 32.468484 18.961828 31.931969 19.03125 31.417969 19.03125 C 30.065969 19.03125 28.890953 18.554109 28.001953 18.037109 L 28.001953 14.523438 C 28.983953 13.878438 31.721234 12.27925 35.115234 12.03125 z M 14.886719 12.033203 C 18.289719 12.284203 21.042953 13.905063 22.001953 14.539062 L 22.001953 18.037109 L 22 18.037109 C 21.11 18.554109 19.933078 19.03125 18.580078 19.03125 C 18.065078 19.03125 17.528562 18.961828 16.976562 18.798828 C 15.749562 18.437828 14.906453 17.71075 14.314453 16.84375 L 14.886719 12.033203 z M 17.582031 14.021484 C 16.703125 14.106387 16 14.432219 16 14.886719 C 16 16.085719 19.574906 17.430188 20.503906 16.867188 C 20.795906 16.690188 21 16.443656 21 16.097656 C 21 14.403906 19.046875 13.87998 17.582031 14.021484 z M 31.498047 14.021484 C 30.248047 14.137234 28.998047 14.742656 28.998047 16.097656 C 28.998047 16.443656 29.202141 16.691187 29.494141 16.867188 C 30.424141 17.430187 33.998047 16.085719 33.998047 14.886719 C 33.998047 14.280719 32.748047 13.905734 31.498047 14.021484 z M 24 15 L 26 15 L 26 24 L 24 24 L 24 15 z M 13 24.083984 L 13 34 C 13 34.368082 13.023334 34.687777 13.054688 34.988281 C 13.172554 36.358266 13.536126 36.98214 14.125 37.767578 L 14.177734 37.839844 C 14.180495 37.84355 14.182784 37.847859 14.185547 37.851562 L 14.1875 37.851562 L 14.1875 37.853516 C 14.573846 38.37112 14.932242 38.885432 15.261719 39.392578 C 15.263237 39.394915 15.264108 39.398054 15.265625 39.400391 C 15.593472 39.905371 15.894349 40.402616 16.169922 40.888672 C 16.172413 40.893065 16.175247 40.897953 16.177734 40.902344 C 16.250438 41.030748 16.307717 41.150642 16.376953 41.277344 C 16.571923 41.634035 16.766986 41.991355 16.935547 42.332031 C 17.160251 42.786343 17.36352 43.225662 17.544922 43.644531 C 17.547558 43.650618 17.550107 43.657984 17.552734 43.664062 C 17.732904 44.080995 17.892037 44.478212 18.033203 44.851562 C 18.035721 44.858218 18.03851 44.866407 18.041016 44.873047 C 18.050961 44.899422 18.056646 44.921132 18.066406 44.947266 C 18.196899 45.296397 18.314952 45.628091 18.414062 45.929688 C 18.624861 46.571836 18.771363 47.104772 18.865234 47.486328 C 18.897163 47.615521 18.944621 47.736652 19 47.853516 L 19 47.855469 C 19.326565 48.543034 20.030471 49 20.804688 49 L 29.193359 49 C 29.969067 49 30.674769 48.54302 31 47.851562 L 31 47.849609 C 31.000599 47.848309 31.001356 47.847004 31.001953 47.845703 C 31.055505 47.730917 31.101781 47.611063 31.132812 47.484375 C 31.226701 47.102854 31.373168 46.569496 31.583984 45.927734 C 31.585159 45.92416 31.586712 45.919597 31.587891 45.916016 C 31.61816 45.824064 31.660323 45.715619 31.693359 45.619141 C 31.77772 45.372605 31.861118 45.127888 31.964844 44.853516 C 31.975969 44.824105 31.990597 44.78947 32.001953 44.759766 C 32.136913 44.406541 32.283479 44.038223 32.453125 43.646484 C 32.492057 43.556591 32.54313 43.456912 32.583984 43.365234 C 32.735523 43.025168 32.888932 42.682532 33.068359 42.320312 C 33.129541 42.196771 33.206916 42.06522 33.271484 41.939453 C 33.449006 41.593676 33.623865 41.248912 33.828125 40.888672 C 34.23665 40.168182 34.722586 39.417763 35.248047 38.660156 C 35.43522 38.390458 35.609305 38.123621 35.8125 37.851562 L 35.876953 37.763672 C 36.464566 36.979643 36.827413 36.356085 36.945312 34.990234 C 36.976955 34.689181 37 34.368939 37 34 L 37 24.083984 L 31.072266 25.755859 C 31.050266 25.761859 31.028766 25.767437 31.009766 25.773438 C 31.004766 25.825437 31 25.899 31 26 L 31 31 L 31 38.667969 L 31 39 L 31 42.025391 C 29.97835 44.206452 29.436643 46.012208 29.193359 47 L 29 47 L 29 30 L 21 30 L 21 47 L 20.804688 47 C 20.561529 46.012713 20.020966 44.207584 19 42.027344 L 19 41 L 19 39 L 19 31 L 19 26 C 19 25.899 18.994281 25.824484 18.988281 25.771484 C 18.975281 25.767484 18.964172 25.765719 18.951172 25.761719 L 13 24.083984 z"/></svg>